Patient4_TMGait_0pt4_01_left_01_EMG.mot
version=1
nRows=20
nColumns=33
inDegrees=no
endheader
time	1LAddLong	2LGlutMax	3LGlutMed	4LIliopsoas	5LSemiMemb	6LBicFemLong	7LRecFem	8LVastMed	9LVastLat	10LGasMed	11LTibAnt	12lTibPost	13LPeroneusLong	14LSol	15LExtDigLong	16LFlexDigLong	17RAddLong	18RGlutMax	19RGlutMed	20RIliopsoas	21RSemiMemb	22RBicFemLong	23RRecFem	24RVastMed	25RVastLat	26RGasMed	27RTibAnt	28RTibPost	29RPeroneusLong	30RSol	31RExtDigLong	32RFlexDigLong
0.11	-0.003662	-0.00473	0.013885	-0.001068	-0.001984	0.007629	0.046082	0.008392	-0.11002	-0.021057	-0.1004	0.003967	0.033875	-0.043945	-0.048523	-0.011902	0.009308	-0.043182	0.053558	-0.066528	0.069427	0.036011	-0.17807	-0.006104	-0.061798	-0.00824	0.21149	-0.007019	0.52536	0.002136	0.001068	-0.013123
0.111	0.002594	-0.041656	0.005035	-0.00412	0.003052	0.02182	0.056915	0.010529	-0.13229	0.037537	-0.041046	0.005646	-0.014038	-0.02594	-0.034332	-0.011139	0.005646	-0.084839	0.39414	-0.075684	0.032501	0.027008	0.02533	-0.002594	0.019531	-0.003815	0.19989	-0.002899	-0.008392	-0.028076	0.00473	-0.009003
0.112	-0.00351	-0.038605	0.011749	-0.006104	0.000458	0.04837	0.055695	0.007629	-0.13489	0.087738	-0.01236	0.007935	-0.016632	-0.063019	0.031128	-0.000153	-0.003662	0.020142	0.31982	-0.13809	0.002899	0.038757	-0.050507	-0.022583	0.037842	0.000916	0.14465	-0.00412	-0.64865	-0.003052	-0.002747	0.007629
0.113	0.003204	0.000458	0.025635	0.019226	0.005798	0.031128	0.032501	0.009918	-0.13657	0.07431	-0.041046	0.010529	0.03479	-0.041351	0.020905	-0.01297	0.000763	0.053253	0.43152	-0.16525	-0.007019	0.018616	-0.10696	-0.071564	0.065002	0.00061	-0.036163	-0.003357	0.62759	0.019379	0.002441	-0.006714
0.114	-0.006409	0.009155	-0.00351	0.007324	0.025635	0.040131	0.045471	0.014191	-0.14771	0.064545	-0.02594	0.005188	0.060577	-0.045471	0.078888	-0.015564	0.012665	0.086975	0.50552	-0.1062	-0.024872	0.029144	-0.027618	-0.071411	0.043793	-0.010681	0.094299	-0.007019	-0.26733	0.11093	0.002594	-0.008392
0.115	-0.000153	0.00351	-0.006256	0.000458	0.005188	0.010376	0.043488	0.008698	-0.1384	0.035095	0.036163	0.009155	0.017242	-0.038147	0.11459	-0.008698	0.011902	0.029602	-0.054016	-0.045624	-0.015717	0.02594	0.059357	-0.12375	0.096741	-0.012817	0.18601	-0.002289	-0.5249	0.081329	0.003967	-0.006714
0.116	-0.001526	-0.018463	-0.036621	0.006256	0.011597	0.01297	0.041504	0.007172	-0.15595	-0.003052	0.036469	0.00885	0.030975	-0.042114	0.044861	-0.01236	0.021973	-0.018311	0.20996	-0.015259	-0.019989	0.028839	0.30945	-0.29862	-0.01709	-0.006714	0.25238	-0.001373	-0.36591	-0.031128	-0.003204	-0.000916
0.117	0.002594	0.015259	-0.056152	0.001831	0.014954	0.014801	0.015869	0.009613	-0.15625	-0.022125	-0.006714	0.003052	0.05188	-0.0383	0.007019	0.00412	0.021057	-0.027313	0.12268	0.010529	-0.024109	0.005646	0.37735	-0.22492	-0.11139	-0.00946	0.22964	-0.003052	-0.37293	-0.11704	-0.000305	0.001373
0.118	-0.002136	0.00824	-0.016327	-0.006714	0.01709	0.029755	0.052185	0.00885	-0.1593	-0.00473	-0.074158	0.012054	0.040436	-0.054321	0.019531	0.005951	0.00885	-0.058899	0.20615	0.070343	-0.003357	0.046997	0.15335	0.019073	-0.16464	-0.006714	0.22446	-0.001526	-0.46707	-0.13504	-0.001831	-0.001678
0.119	0.001221	0.002441	0.029449	-0.002289	0.019684	0.062714	0.03006	0.011292	-0.1741	-0.002594	-0.040131	0.009766	0.036469	-0.05722	0.072937	-0.002747	0.005798	-0.051422	0.32059	0.064087	0.00351	0.043793	-0.13275	0.085754	-0.057983	-0.001526	0.55008	-0.007324	-0.58548	-0.083466	-0.001221	-0.001221
0.12	0.002899	-0.008392	0.03418	0.006256	0.011749	0.035248	0.041809	0.007782	-0.19089	0.006561	0.027466	0.01297	-0.02121	-0.046539	0.11948	-0.014038	-0.003662	-0.09079	0.4509	-0.012207	0.010223	0.04776	-0.4808	0.18249	0.065002	-0.009003	0.58579	-0.003967	1.2099	-0.11353	0.002289	-0.012512
0.121	0.006866	-0.014038	-0.034943	0.004425	-0.004578	0.030975	0.03479	0.00412	-0.19501	-0.023651	0.026093	0.002899	0.010681	-0.050354	0.087891	0.000916	-0.013123	-0.013123	0.3305	-0.002289	0.023499	0.032043	-0.42725	0.26245	0.19608	-0.012817	0.4097	-0.001678	0.011292	-0.14526	-0.001373	-0.009613
0.122	0.000916	0.016327	-0.069275	0.004578	-0.006561	0.023651	0.042419	0.00473	-0.19592	-0.033417	-0.014496	0.00885	0.018463	-0.032196	0.003662	0.000916	0.001984	0.019226	0.31296	0.026703	0.012207	0.010071	0.10498	0.2356	0.1471	-0.004883	0.41107	-0.000458	-0.36606	-0.22736	-0.002289	-0.003052
0.123	-0.003967	0.016632	-0.032196	0.003357	-0.005646	0.016022	0.037994	0.006866	-0.20981	-0.023346	-0.02533	0.0177	0.028076	-0.033417	-0.03479	-0.01236	0.014648	0.042114	-0.15503	0.08255	-0.004272	-0.006256	0.37827	0.065308	-0.081024	0.014496	-0.43274	-0.002594	0.37308	-0.25665	-0.000916	0.000916
0.124	-0.000458	-0.000916	-0.035095	-0.00473	-0.023956	0.016785	0.034332	0.005188	-0.1741	-0.037689	-0.019531	0.007172	0.041046	-0.045624	-0.050354	0.005798	0.029449	0.011597	-0.61066	0.035858	-0.012817	-0.017242	0.46448	-0.00351	-0.17258	0.012207	-1.2608	-0.002747	0.88623	-0.32211	-0.000458	0.000458
0.125	0.044556	-0.002136	-0.028992	0.000153	-0.027161	0.034637	0.029755	0.008087	-0.15579	-0.032349	-0.030365	0.01236	0.053558	-0.062256	-0.059204	0.003662	0.035706	0	-0.062561	0.006866	-0.006409	-0.003815	0.54214	-0.10101	-0.22629	0.008087	-0.79559	-0.00351	-0.079651	-0.27298	-0.002289	-0.001373
0.126	-0.016022	0.016632	-0.02533	0.004883	-0.03067	0.016632	0.042114	0.005188	-0.1178	-0.021515	-0.009003	0.010986	0.066986	-0.067139	-0.052948	-0.003204	0.002899	-0.019073	0.29098	-0.030365	0.009308	0.03479	0.50705	-0.14114	-0.26077	0.007019	-0.46387	-0.007629	-0.4602	-0.21347	0.000916	-0.005188
0.127	0.00351	-0.012207	-0.005951	0.010986	-0.011597	0.020294	0.045929	0.006104	-0.075226	-0.007629	0.011292	0.019836	0.063477	-0.059814	-0.005798	0.005646	-0.008392	-0.061951	-0.066071	-0.091858	0.013123	0.031433	-0.004272	-0.27817	-0.21698	-0.001221	0.2095	-0.00061	-0.27954	-0.11032	-0.002289	-0.006256
0.128	0.000458	0.024261	-0.02121	0.00351	0.003204	0.013428	0.048218	0.006866	-0.053406	-0.007324	0.008545	0.010376	0.046997	-0.052643	0.011292	0.010834	-0.014801	-0.054321	-0.15472	0.007172	0.018158	0.02121	-0.64407	-0.3569	-0.1561	-0.001984	0.71091	-0.003052	-0.091095	-0.028076	-0.004578	-0.000458
0.129	0.015717	0.018463	-0.03418	0.008087	-0.005951	0.036621	0.027008	0.009003	-0.019989	-0.012512	0.013428	0.009003	-0.005646	-0.046387	0.001984	0.006561	0.002899	-0.037994	0.19028	0.016174	0.007172	0.008087	-0.41672	-0.21713	-0.023499	-0.010071	1.0385	-0.003052	-0.33127	0.013275	0	-0.010681
